<svg xmlns="http://www.w3.org/2000/svg" 
  data-name="Layer 1" 
  viewBox="0 0 100 125"
  fill="#FFFFFF" 
  x="0px" 
  y="0px"><title>atools</title>
<path d="M 64.2 40.8 a 4.5 4.5 0 1 0 6.2 1.1 A 4.4 4.4 0 0 0 64.2 40.8 Z"/><path d="M 49.7 28.4 A 5.5 5.5 0 1 0 51.5 36 A 5.5 5.5 0 0 0 49.7 28.4 Z"/><path d="M 85.3 54.2 c 1.2 -9.7 2.5 -20.7 -0.3 -26.9 C 80.8 15.5 68.1 6.9 54.8 6.9 c -17 0 -31.5 13.6 -31.8 29.9 L 13.6 60.8 a 3 3 0 0 0 2.5 4.1 l 7.5 0.7 l 2.8 13.5 a 3 3 0 0 0 3.1 2.4 L 40 80.8 L 39.7 90 a 3 3 0 0 0 3 3.1 h 0 l 40.4 -0.5 a 3 3 0 0 0 3 -3.3 L 84.5 72.4 a 60.1 60.1 0 0 1 -0.1 -9.7 C 84.5 60.2 84.9 57.3 85.3 54.2 Z M 55.4 42.4 a 1.4 1.4 0 0 1 -0.7 0.8 l -4.2 2.3 a 1.4 1.4 0 0 1 -1.8 -0.3 l 0 -0.1 l -1.5 -2.2 a 8.3 8.3 0 0 1 -1.8 0 L 43.8 45 a 1.4 1.4 0 0 1 -1.8 0.4 L 37.9 42.9 a 1.4 1.4 0 0 1 -0.5 -1.8 l 1.2 -2.3 a 9.3 9.3 0 0 1 -0.9 -1.6 l -2.6 -0.3 h -0.1 A 1.4 1.4 0 0 1 34 35.5 s 0 0 0 0 l 0.1 -4.8 a 1.4 1.4 0 0 1 0.4 -1 a 1.4 1.4 0 0 1 1 -0.4 L 38 29 c 0.1 -0.3 0.3 -0.5 0.5 -0.8 s 0.3 -0.5 0.5 -0.8 l -1 -2.4 a 1.4 1.4 0 0 1 0 -1 a 1.4 1.4 0 0 1 0.7 -0.8 l 4.2 -2.3 a 1.2 1.2 0 0 1 1 -0.2 a 1.5 1.5 0 0 1 0.8 0.5 l 0 0.1 l 1.5 2.2 a 8.2 8.2 0 0 1 1.8 0 l 1.6 -2.1 a 1.4 1.4 0 0 1 1.8 -0.4 l 4.1 2.5 A 1.4 1.4 0 0 1 56 25.3 l -1.2 2.3 a 9.4 9.4 0 0 1 0.8 1.5 l 2.6 0.3 l 0.1 0 a 1.4 1.4 0 0 1 1.1 1.4 s 0 0 0 0 l -0.1 4.8 a 1.4 1.4 0 0 1 -0.4 1 a 1.4 1.4 0 0 1 -1 0.4 l -2.6 0.2 c -0.1 0.3 -0.3 0.5 -0.5 0.8 s -0.3 0.5 -0.5 0.8 l 0.9 2.5 A 1.4 1.4 0 0 1 55.4 42.4 Z m 21.3 4.4 v 0 l -1.6 3.5 a 1.1 1.1 0 0 1 -0.6 0.6 a 1.1 1.1 0 0 1 -0.8 0 l -1.9 -0.7 c -0.2 0.2 -0.4 0.3 -0.6 0.4 s -0.4 0.3 -0.6 0.4 l -0.1 2.1 a 1.1 1.1 0 0 1 -0.3 0.7 a 1.1 1.1 0 0 1 -0.8 0.4 l -3.7 0.3 a 1.1 1.1 0 0 1 -1.2 -0.8 l 0 -0.1 l -0.4 -2 a 6.5 6.5 0 0 1 -1.3 -0.6 l -1.8 1 a 1.1 1.1 0 0 1 -1.4 -0.3 l -2.2 -3.1 a 1.1 1.1 0 0 1 0.2 -1.4 L 59.1 46 A 7.3 7.3 0 0 1 59 44.6 l -1.8 -1 l -0.1 0 a 1.1 1.1 0 0 1 -0.4 -1.3 v 0 l 1.6 -3.5 a 1.1 1.1 0 0 1 0.6 -0.6 a 1.1 1.1 0 0 1 0.8 0 l 1.9 0.7 c 0.2 -0.2 0.4 -0.3 0.6 -0.4 s 0.4 -0.3 0.6 -0.4 V 35.9 a 1.1 1.1 0 0 1 0.3 -0.8 a 1.1 1.1 0 0 1 0.8 -0.4 l 3.7 -0.3 a 1 1 0 0 1 0.8 0.2 a 1.2 1.2 0 0 1 0.4 0.6 l 0 0.1 l 0.4 2 a 6.4 6.4 0 0 1 1.3 0.6 l 1.9 -1 a 1.1 1.1 0 0 1 1.4 0.3 l 2.2 3.1 a 1.1 1.1 0 0 1 -0.2 1.4 L 74.3 43 a 7.4 7.4 0 0 1 0.1 1.4 l 1.8 1 l 0.1 0 A 1.1 1.1 0 0 1 76.6 46.8 Z"/>
</svg>
